<?xml version="1.0" encoding="UTF-8"?><svg id="_圖層_2" xmlns="http://www.w3.org/2000/svg" viewBox="0 0 100.58 90.13"><defs><style>.cls-1{fill:#fdfefe;}.cls-2{fill:#f9fdfc;}.cls-3{fill:#05cc9a;}.cls-4{fill:#03cb98;}.cls-5{fill:#07cc9b;}.cls-6{fill:#1dcfa1;}</style></defs><g id="_圖層_1-2"><g><path class="cls-1" d="M50.52,.03C44.02,.03,37.53,.12,31.04,0c-4.62-.08-7.96,1.75-10.25,5.76C14.42,16.88,7.95,27.94,1.62,39.07c-2.22,3.9-2.14,7.89,.16,11.85,6.26,10.79,12.5,21.6,18.64,32.46,2.65,4.68,6.54,6.78,11.86,6.75,11.99-.07,23.98-.06,35.97,0,5.3,.02,9.18-2.03,11.85-6.75,6.14-10.87,12.45-21.64,18.71-32.43,2.29-3.94,2.39-7.9,.12-11.85-6.47-11.25-12.98-22.48-19.48-33.72C77.35,1.74,74.23-.02,70,.02c-6.49,.06-12.99,.02-19.48,.02Z"/><path class="cls-5" d="M50.52,.03c6.49,0,12.99,.05,19.48-.02,4.23-.04,7.35,1.72,9.45,5.36,6.5,11.24,13.01,22.47,19.48,33.72,2.27,3.94,2.17,7.9-.12,11.85-6.26,10.79-12.57,21.56-18.71,32.43-2.67,4.72-6.55,6.78-11.85,6.75-11.99-.06-23.98-.07-35.97,0-5.32,.03-9.21-2.07-11.86-6.75-6.15-10.86-12.39-21.66-18.64-32.46-2.3-3.96-2.38-7.95-.16-11.85C7.95,27.94,14.42,16.88,20.78,5.76,23.08,1.76,26.42-.08,31.04,0c6.49,.12,12.99,.03,19.48,.03Zm-.55,81.18c5.49,0,11.02,.37,16.45-.17,2.39-.24,5.51-1.78,6.72-3.72,5.9-9.44,11.43-19.12,16.67-28.94,1.01-1.9,.97-5.29-.06-7.21-5.18-9.66-10.95-19-16.28-28.59-1.69-3.03-3.84-4.16-7.21-4.12-10.64,.13-21.29,.13-31.94,0-3.36-.04-5.55,1.04-7.24,4.08-5.33,9.59-11.07,18.95-16.24,28.62-1.03,1.92-1.17,5.3-.17,7.17,5.33,9.96,11.01,19.74,16.94,29.35,1.07,1.73,3.82,3.18,5.91,3.36,5.45,.47,10.97,.16,16.46,.16Z"/><path class="cls-2" d="M49.97,81.21c-5.49,0-11.01,.31-16.46-.16-2.09-.18-4.84-1.63-5.91-3.36-5.93-9.61-11.61-19.4-16.94-29.35-1-1.87-.86-5.25,.17-7.17,5.18-9.67,10.92-19.03,16.24-28.62,1.69-3.04,3.88-4.12,7.24-4.08,10.64,.13,21.29,.13,31.94,0,3.37-.04,5.52,1.08,7.21,4.12,5.33,9.58,11.1,18.93,16.28,28.59,1.03,1.92,1.08,5.31,.06,7.21-5.23,9.82-10.77,19.5-16.67,28.94-1.21,1.94-4.33,3.48-6.72,3.72-5.43,.55-10.96,.17-16.45,.17Zm.07-35.62H20.5v5.98h29.55v-5.98Zm-23.73,17.31h23.9c-.1-2.14-.19-3.89-.27-5.6H26.31v5.6Zm23.54,11.4v-5.73h-17.48v5.73h17.48Z"/><path class="cls-6" d="M50.05,45.59v5.98H20.5v-5.98h29.55Z"/><path class="cls-3" d="M26.31,62.9v-5.6h23.63c.08,1.71,.17,3.46,.27,5.6H26.31Z"/><path class="cls-4" d="M49.86,74.3h-17.48v-5.73h17.48v5.73Z"/></g></g></svg>